# xmcd CD database file
#
# Track frame offsets:
#	150
#	20849
#	38959
#	56830
#	70376
#	93917
#	110947
#	130743
#	144360
#	160635
#	175531
#	190961
#	209183
#
# Disc length: 2961 seconds
#
# Revision: 0
# Processed by: cddbd v1.5.2PL0 Copyright (c) Steve Scherf et al.
# Submitted via: CDex 1.40Beta6
#
DISCID=c20b8f0d
DTITLE=Jon Hooker/Billy Vallance - Lovehound
DYEAR=1900
DGENRE=Blues
TTITLE0=Walkin' Blues
TTITLE1=Sitting On Top Of The World
TTITLE2=Sth Africa
TTITLE3=Heartache Train
TTITLE4=Wicked Game
TTITLE5=My Babe
TTITLE6=Coming Up For Air
TTITLE7=Fine Lookin' Friend
TTITLE8=Slough (live sluff)
TTITLE9=The Rain Don't Fall On Me
TTITLE10=Another Man Done Gone
TTITLE11=Moth
TTITLE12=Lovehound
EXTD=
EXTT0=
EXTT1=
EXTT2=
EXTT3=
EXTT4=
EXTT5=
EXTT6=
EXTT7=
EXTT8=
EXTT9=
EXTT10=
EXTT11=
EXTT12=
PLAYORDER=
